<svg xmlns="http://www.w3.org/2000/svg" viewBox="0 0 281.51 143.89"><defs><style>.cls-1{fill:#000da2;}.cls-2{fill:#5c9cff;}</style></defs><g id="Capa_2" data-name="Capa 2"><g id="Capa_1-2" data-name="Capa 1"><polygon class="cls-1" points="52.12 52.41 52.12 88.56 40.77 88.56 40.77 140.48 0 140.48 0 3.41 40.77 3.41 40.77 52.41 52.12 52.41"/><rect class="cls-1" x="59.04" y="3.41" width="40.77" height="137.07"/><path class="cls-1" d="M238.83,73.5Q237.42,88,229.74,95.69t-20.63,7.73q-12.75,0-21.09-8.78T179.69,72.4q0-14,8.48-23t21.54-9q20.49,0,27.82,22.5l43.68-2.92q-5.83-25.29-19.89-39.46Q241,0,210.71,0q-27.5,0-47.2,16.63.57,1,1.08,2.1a45.47,45.47,0,0,1,4,19.52,40.41,40.41,0,0,1-10.1,27.26c11.11,8.09,16.92,20.18,16.92,35.5,0,11.18-3,20.84-9,28.72-.07.09-.14.19-.22.28q18.42,13.89,43.59,13.88,30.12,0,48.85-18.07t22.95-51.21Z"/><path class="cls-2" d="M145.89,67q15.17-11.44,15.17-28.72a37.86,37.86,0,0,0-3.25-16.32q-8.75-18.51-41-18.52h-9V40.16h7.53q10.14,0,10.14,7.13,0,7.74-11.25,7.73V91.58H122q10.23,0,10.24,6.62,0,3.92-2.51,5.48t-8.64,1.55h-6.93v35.25h7.73q12.26,0,19.49-2.11a37.15,37.15,0,0,0,13.55-7.43,37.71,37.71,0,0,0,5.44-5.75q7.51-9.87,7.51-24.18Q167.88,76.52,145.89,67Z"/></g></g></svg>